
<svg width="800px" height="800px" viewBox="0 0 24 24" fill="none" xmlns="http://www.w3.org/2000/svg">
<path opacity="0.4" d="M22 12C22 17.52 17.52 22 12 22C6.48 22 2 17.52 2 12C2 6.48 6.48 2 12 2C17.52 2 22 6.48 22 12Z" fill="#292D32"/>
<path d="M16.5 7.42V8.58C16.5 9.31 16.14 10 15.5 10.4L13.5 11.65C13.19 11.85 13 12.17 13 12.55V14.5C13 14.78 13.22 15 13.5 15H14.5C15.05 15 15.5 15.45 15.5 16V17C15.5 17.55 15.05 18 14.5 18H9.5C8.95 18 8.5 17.55 8.5 17V16C8.5 15.45 8.95 15 9.5 15H10.5C10.78 15 11 14.78 11 14.5V12.55C11 12.17 10.81 11.85 10.5 11.65L8.5 10.4C7.86 10 7.5 9.31 7.5 8.58V7.42C7.5 6.58 8.22 5.93 9.05 6.01C9.76 6.08 10.47 6.11 11.17 6.1H12.83C13.53 6.11 14.24 6.08 14.95 6.01C15.78 5.93 16.5 6.58 16.5 7.42Z" fill="#292D32"/>
</svg>
